<svg width="97" height="41" viewBox="0 0 97 41" fill="none" xmlns="http://www.w3.org/2000/svg">
<path fill-rule="evenodd" clip-rule="evenodd" d="M29.3151 19.4846C28.2263 27.6462 21.3558 33.9685 13.0586 33.9685C12.5706 33.9685 12.12 33.9301 11.632 33.8918L12.0825 32.3975C12.4204 32.4358 12.7207 32.4358 13.0586 32.4358C20.4548 32.4358 26.612 26.9181 27.7758 19.7145L29.3151 19.4846Z" fill="#092540"/>
<path fill-rule="evenodd" clip-rule="evenodd" d="M13.0586 0.479248C22.1067 0.479248 29.4653 7.98939 29.4653 17.2238C29.4653 17.7219 29.4277 18.2584 29.3902 18.7565L27.9635 18.1434C27.9635 17.8369 28.0011 17.5303 28.0011 17.2238C28.0011 8.79405 21.3183 1.97361 13.0586 1.97361C8.70352 1.97361 4.79896 3.88947 2.05826 6.91651L0.631592 6.30344C3.6351 2.70164 8.06528 0.479248 13.0586 0.479248Z" fill="#092540"/>
<path fill-rule="evenodd" clip-rule="evenodd" d="M15.0484 21.3238L29.3526 19.1398L0.368774 6.57178L1.08211 8.37268L24.5846 18.565L13.847 20.2126L10.393 31.6694L11.2565 33.8535L15.0484 21.3238Z" fill="#092540"/>
<path fill-rule="evenodd" clip-rule="evenodd" d="M13.5842 19.9059L23.2705 18.4116L1.26984 8.87061L13.5842 19.9059Z" fill="white"/>
<path fill-rule="evenodd" clip-rule="evenodd" d="M1.26984 8.87061L10.1677 31.1328L13.5842 19.9059L1.26984 8.87061Z" fill="#0057FF"/>
<path fill-rule="evenodd" clip-rule="evenodd" d="M39.039 7.10815L31.3049 27.3012H35.8853L37.3495 23.2013H45.5716L47.1109 27.3012H51.7663L43.6569 7.10815H39.039ZM38.7011 19.4079C39.1891 18.1051 39.6397 16.7641 40.0902 15.4613C40.4281 14.5033 40.9912 12.8557 41.2165 11.8978C41.2916 11.5146 41.3667 11.0548 41.4042 10.6716C41.592 12.0894 41.7797 12.7408 42.6807 15.3463C43.1688 16.6874 43.6569 18.0668 44.1449 19.4462H38.7011V19.4079Z" fill="#092540"/>
<path d="M57.2853 14.8865H53.2681V27.3012H57.2853V14.8865Z" fill="#0057FF"/>
<path fill-rule="evenodd" clip-rule="evenodd" d="M53.606 11.8211C54.2067 12.4342 54.9575 12.5491 55.2954 12.5491C56.5719 12.5491 57.6607 11.4763 57.6607 10.1352C57.6607 8.83237 56.6095 7.72118 55.2954 7.68286C54.0189 7.68286 52.9302 8.75574 52.9302 10.0968C52.9302 10.7482 53.1554 11.3996 53.606 11.8211Z" fill="#0057FF"/>
<path fill-rule="evenodd" clip-rule="evenodd" d="M60 7V27.1931H64.6179C67.3211 27.1931 70.0618 27.1165 72.3144 25.2772C73.7035 24.2044 75.8811 21.4455 75.8811 16.8858C75.8811 15.8129 75.806 13.7438 74.4168 11.4448C73.9288 10.6018 73.0277 9.14575 70.8877 8.11119C68.6726 7.07663 66.3449 7.03832 64.0172 7.03832H60V7ZM64.3175 10.5252C66.4951 10.4869 68.2221 10.6784 69.5361 11.713C71.6011 13.3606 71.6761 16.2727 71.6761 16.9624C71.6761 20.1811 70.287 21.9053 69.1607 22.6717C67.734 23.6296 65.9319 23.6296 64.3175 23.6296V10.5252Z" fill="#092540"/>
<path fill-rule="evenodd" clip-rule="evenodd" d="M83.979 7.10815L76.2074 27.3012H80.7877L82.252 23.2013H90.4741L92.0134 27.3012H96.6688L88.5593 7.10815H83.979ZM83.6035 19.4079C84.0916 18.1051 84.5421 16.7641 84.9927 15.4613C85.3306 14.5033 85.8937 12.8557 86.119 11.8978C86.1941 11.5146 86.2691 11.0548 86.3067 10.6716C86.4944 12.0894 86.6821 12.7408 87.5832 15.3463C88.0713 16.6874 88.5593 18.0668 89.0474 19.4462H83.6035V19.4079Z" fill="#092540"/>
<path fill-rule="evenodd" clip-rule="evenodd" d="M74.8558 30.0216C74.593 29.9066 74.2926 29.7917 74.0298 29.6767C73.0537 29.3319 72.1151 29.2936 71.7772 29.2936C71.4768 29.2936 70.6133 29.3319 69.7873 29.6767C69.1116 29.945 68.5109 30.4048 68.0228 30.9412C67.6098 31.401 67.3845 31.7842 67.2719 32.0141C66.8214 32.8954 66.6337 34.0066 66.6337 34.9645C66.6337 37.4168 67.8351 38.8345 68.5484 39.4476C69.7873 40.5588 71.3266 40.5971 71.8523 40.5971C73.3165 40.5971 74.4052 40.0607 74.8558 39.8691V37.3402C74.6681 37.4934 74.4803 37.6084 74.3302 37.7233C73.8045 38.1065 73.1288 38.2981 72.8659 38.3747C72.4905 38.4513 72.2277 38.4513 72.0775 38.4513C70.0877 38.4513 69.3744 37.0719 69.1491 36.3822C68.9614 35.7692 68.9238 35.271 68.9238 35.0411C68.9238 33.2019 69.9 32.244 70.5382 31.8608C71.1389 31.516 71.7772 31.4776 72.04 31.4776C73.5042 31.4776 74.4803 32.3589 74.8558 32.7038V30.0216ZM76.1323 28.9104V40.2906H78.2347V36.957C78.2347 36.4205 78.2723 35.8841 78.7603 35.5393C78.873 35.4626 79.0982 35.3093 79.4737 35.3093C79.7365 35.3093 79.8491 35.386 79.9617 35.4243C80.5249 35.6925 80.4874 36.2673 80.4874 36.8037V40.2906H82.6273V35.9224C82.6273 35.5009 82.6274 35.1178 82.4772 34.7346C82.1768 33.8533 81.2382 33.4318 80.3747 33.4318C79.2859 33.4318 78.6477 34.0449 78.3849 34.3514C78.3474 34.4281 78.3098 34.5047 78.2347 34.543V28.9104H76.1323ZM89.2351 34.5813C89.0849 34.3897 88.9347 34.1982 88.7095 34.0449C88.0337 33.5084 87.3203 33.5084 87.02 33.5084C86.2316 33.5084 85.5558 33.7383 84.9551 34.3131C83.9789 35.271 83.9414 36.5738 83.9414 37.0336C83.9414 38.3364 84.5045 39.7158 85.7435 40.2906C86.2691 40.5588 86.7947 40.5588 86.9824 40.5588C87.8459 40.5588 88.5217 40.2139 88.7845 40.0223C88.9347 39.9074 89.0849 39.7924 89.2351 39.6392V40.2906H91.3375V33.6617H89.2351V34.5813ZM87.7333 35.3093C88.7095 35.3093 89.3477 36.114 89.3477 37.1103C89.3477 38.0299 88.747 38.8345 87.8084 38.8345C87.3579 38.8345 87.0575 38.6812 86.9449 38.5663C86.6445 38.3747 86.194 37.9149 86.194 36.9953C86.194 36.7654 86.194 36.2673 86.5695 35.8075C86.9824 35.3477 87.5081 35.3093 87.7333 35.3093ZM95.4674 31.2861H93.3274V33.6617H92.4263V35.271H93.3274V40.2906H95.4298V35.271H96.6312V33.6617H95.4674V31.2861Z" fill="#0057FF"/>
</svg>
