<svg width="32" height="32" viewBox="0 0 135 153" fill="none" xmlns="http://www.w3.org/2000/svg">
<path fill-rule="evenodd" clip-rule="evenodd" d="M133.746 86.8713C128.742 123.766 97.165 152.347 59.0307 152.347C56.7875 152.347 54.7168 152.174 52.4736 152.001L54.5443 145.245C56.0973 145.418 57.4777 145.418 59.0307 145.418C93.0237 145.418 121.323 120.475 126.672 87.9106L133.746 86.8713Z" fill="#092540"/>
<path fill-rule="evenodd" clip-rule="evenodd" d="M59.0305 0.782837C100.616 0.782837 134.436 34.7332 134.436 76.4783C134.436 78.7301 134.264 81.1551 134.091 83.4069L127.534 80.6355C127.534 79.2497 127.707 77.864 127.707 76.4783C127.707 38.3707 96.9923 7.53826 59.0305 7.53826C39.0143 7.53826 21.0687 16.1991 8.47232 29.8831L1.91528 27.1117C15.7196 11.0026 36.0809 0.782837 59.0305 0.782837Z" fill="#092540"/>
<path fill-rule="evenodd" clip-rule="evenodd" d="M68.176 95.1856L133.919 85.1391L0.70752 28.3242L3.98604 36.6386L112.005 82.5409L62.6543 90.1624L46.7793 141.781L50.7481 151.827L68.176 95.1856Z" fill="#092540"/>
<path fill-rule="evenodd" clip-rule="evenodd" d="M61.4464 88.6034L105.965 81.848L4.84888 38.7172L61.4464 88.6034Z" fill="white"/>
<path fill-rule="evenodd" clip-rule="evenodd" d="M4.84888 38.7172L45.7441 139.356L61.4464 88.6034L4.84888 38.7172Z" fill="#0057FF"/>
</svg>
